ISO-10303-21;
HEADER;
/* Generated by software containing ST-Developer
 * from STEP Tools, Inc. (www.steptools.com) 
 */
/* OPTION: using custom renumber hook */

FILE_DESCRIPTION(
/* description */ ('STEP AP242 Edition 2',
'CAx-IF Rec.Pracs.---Representation and Presentation of Product Manufa
cturing Information (PMI)---4.0---2014-10-13',
'CAx-IF Rec.Pracs.---3D Tessellated Geometry---0.4---2014-09-14','2;1',
'CAx-IF Rec.Pracs.---User Defined Attributes---1.5---2016-08-15'),
/* implementation_level */ '2;1');

FILE_NAME(
/* name */ 'Assembly 1 - Part 1 (1)',
/* time_stamp */ '2026-10-07T16:04:54Z',
/* author */ (''),
/* organization */ (''),
/* preprocessor_version */ 'ST-DEVELOPER v20',
/* originating_system */ 'ONSHAPE BY PTC INC, 1.221',
/* authorisation */ '  ');

FILE_SCHEMA (('AP242_MANAGED_MODEL_BASED_3D_ENGINEERING_MIM_LF { 1 0 10303 442 3 1 4 }'));
ENDSEC;

DATA;
#10=SHAPE_REPRESENTATION_RELATIONSHIP('','',#317,#11);
#11=ADVANCED_BREP_SHAPE_REPRESENTATION('',(#315),#515);
#12=CYLINDRICAL_SURFACE('',#341,0.00135);
#13=CYLINDRICAL_SURFACE('',#342,0.00135);
#14=CYLINDRICAL_SURFACE('',#343,0.00135);
#15=CYLINDRICAL_SURFACE('',#344,0.00135);
#16=CYLINDRICAL_SURFACE('',#345,0.00135);
#17=CYLINDRICAL_SURFACE('',#346,0.00135);
#18=CYLINDRICAL_SURFACE('',#347,0.00135);
#19=CYLINDRICAL_SURFACE('',#348,0.00135);
#20=LINE('',#445,#38);
#21=LINE('',#448,#39);
#22=LINE('',#450,#40);
#23=LINE('',#452,#41);
#24=LINE('',#454,#42);
#25=LINE('',#457,#43);
#26=LINE('',#459,#44);
#27=LINE('',#461,#45);
#28=LINE('',#471,#46);
#29=LINE('',#472,#47);
#30=LINE('',#474,#48);
#31=LINE('',#476,#49);
#32=LINE('',#478,#50);
#33=LINE('',#488,#51);
#34=LINE('',#491,#52);
#35=LINE('',#492,#53);
#36=LINE('',#502,#54);
#37=LINE('',#503,#55);
#38=VECTOR('',#363,1.);
#39=VECTOR('',#364,1.);
#40=VECTOR('',#365,1.);
#41=VECTOR('',#366,1.);
#42=VECTOR('',#369,1.);
#43=VECTOR('',#370,1.);
#44=VECTOR('',#371,1.);
#45=VECTOR('',#372,1.);
#46=VECTOR('',#383,1.);
#47=VECTOR('',#384,1.);
#48=VECTOR('',#387,1.);
#49=VECTOR('',#388,1.);
#50=VECTOR('',#389,1.);
#51=VECTOR('',#400,1.);
#52=VECTOR('',#401,1.);
#53=VECTOR('',#402,1.);
#54=VECTOR('',#413,1.);
#55=VECTOR('',#414,1.);
#56=ORIENTED_EDGE('',*,*,#124,.T.);
#57=ORIENTED_EDGE('',*,*,#125,.T.);
#58=ORIENTED_EDGE('',*,*,#126,.T.);
#59=ORIENTED_EDGE('',*,*,#127,.T.);
#60=ORIENTED_EDGE('',*,*,#128,.F.);
#61=ORIENTED_EDGE('',*,*,#129,.T.);
#62=ORIENTED_EDGE('',*,*,#130,.T.);
#63=ORIENTED_EDGE('',*,*,#131,.F.);
#64=ORIENTED_EDGE('',*,*,#132,.F.);
#65=ORIENTED_EDGE('',*,*,#133,.T.);
#66=ORIENTED_EDGE('',*,*,#134,.T.);
#67=ORIENTED_EDGE('',*,*,#135,.F.);
#68=ORIENTED_EDGE('',*,*,#136,.F.);
#69=ORIENTED_EDGE('',*,*,#137,.F.);
#70=ORIENTED_EDGE('',*,*,#138,.F.);
#71=ORIENTED_EDGE('',*,*,#139,.F.);
#72=ORIENTED_EDGE('',*,*,#133,.F.);
#73=ORIENTED_EDGE('',*,*,#140,.T.);
#74=ORIENTED_EDGE('',*,*,#128,.T.);
#75=ORIENTED_EDGE('',*,*,#141,.F.);
#76=ORIENTED_EDGE('',*,*,#130,.F.);
#77=ORIENTED_EDGE('',*,*,#142,.T.);
#78=ORIENTED_EDGE('',*,*,#143,.T.);
#79=ORIENTED_EDGE('',*,*,#144,.F.);
#80=ORIENTED_EDGE('',*,*,#145,.F.);
#81=ORIENTED_EDGE('',*,*,#146,.F.);
#82=ORIENTED_EDGE('',*,*,#147,.F.);
#83=ORIENTED_EDGE('',*,*,#148,.F.);
#84=ORIENTED_EDGE('',*,*,#149,.F.);
#85=ORIENTED_EDGE('',*,*,#150,.T.);
#86=ORIENTED_EDGE('',*,*,#135,.T.);
#87=ORIENTED_EDGE('',*,*,#151,.F.);
#88=ORIENTED_EDGE('',*,*,#152,.F.);
#89=ORIENTED_EDGE('',*,*,#153,.F.);
#90=ORIENTED_EDGE('',*,*,#154,.F.);
#91=ORIENTED_EDGE('',*,*,#155,.F.);
#92=ORIENTED_EDGE('',*,*,#156,.F.);
#93=ORIENTED_EDGE('',*,*,#149,.T.);
#94=ORIENTED_EDGE('',*,*,#157,.T.);
#95=ORIENTED_EDGE('',*,*,#143,.F.);
#96=ORIENTED_EDGE('',*,*,#136,.T.);
#97=ORIENTED_EDGE('',*,*,#148,.T.);
#98=ORIENTED_EDGE('',*,*,#137,.T.);
#99=ORIENTED_EDGE('',*,*,#147,.T.);
#100=ORIENTED_EDGE('',*,*,#138,.T.);
#101=ORIENTED_EDGE('',*,*,#146,.T.);
#102=ORIENTED_EDGE('',*,*,#139,.T.);
#103=ORIENTED_EDGE('',*,*,#145,.T.);
#104=ORIENTED_EDGE('',*,*,#152,.T.);
#105=ORIENTED_EDGE('',*,*,#127,.F.);
#106=ORIENTED_EDGE('',*,*,#153,.T.);
#107=ORIENTED_EDGE('',*,*,#126,.F.);
#108=ORIENTED_EDGE('',*,*,#154,.T.);
#109=ORIENTED_EDGE('',*,*,#125,.F.);
#110=ORIENTED_EDGE('',*,*,#155,.T.);
#111=ORIENTED_EDGE('',*,*,#124,.F.);
#112=ORIENTED_EDGE('',*,*,#151,.T.);
#113=ORIENTED_EDGE('',*,*,#134,.F.);
#114=ORIENTED_EDGE('',*,*,#141,.T.);
#115=ORIENTED_EDGE('',*,*,#131,.T.);
#116=ORIENTED_EDGE('',*,*,#144,.T.);
#117=ORIENTED_EDGE('',*,*,#157,.F.);
#118=ORIENTED_EDGE('',*,*,#156,.T.);
#119=ORIENTED_EDGE('',*,*,#142,.F.);
#120=ORIENTED_EDGE('',*,*,#129,.F.);
#121=ORIENTED_EDGE('',*,*,#140,.F.);
#122=ORIENTED_EDGE('',*,*,#132,.T.);
#123=ORIENTED_EDGE('',*,*,#150,.F.);
#124=EDGE_CURVE('',#158,#158,#186,.F.);
#125=EDGE_CURVE('',#159,#159,#187,.F.);
#126=EDGE_CURVE('',#160,#160,#188,.F.);
#127=EDGE_CURVE('',#161,#161,#189,.F.);
#128=EDGE_CURVE('',#162,#163,#20,.T.);
#129=EDGE_CURVE('',#162,#164,#21,.T.);
#130=EDGE_CURVE('',#164,#165,#22,.T.);
#131=EDGE_CURVE('',#163,#165,#23,.T.);
#132=EDGE_CURVE('',#166,#167,#24,.T.);
#133=EDGE_CURVE('',#166,#168,#25,.T.);
#134=EDGE_CURVE('',#168,#169,#26,.T.);
#135=EDGE_CURVE('',#167,#169,#27,.T.);
#136=EDGE_CURVE('',#170,#170,#190,.F.);
#137=EDGE_CURVE('',#171,#171,#191,.F.);
#138=EDGE_CURVE('',#172,#172,#192,.F.);
#139=EDGE_CURVE('',#173,#173,#193,.F.);
#140=EDGE_CURVE('',#166,#162,#28,.T.);
#141=EDGE_CURVE('',#168,#163,#29,.T.);
#142=EDGE_CURVE('',#164,#174,#30,.T.);
#143=EDGE_CURVE('',#174,#175,#31,.T.);
#144=EDGE_CURVE('',#165,#175,#32,.T.);
#145=EDGE_CURVE('',#176,#176,#194,.T.);
#146=EDGE_CURVE('',#177,#177,#195,.T.);
#147=EDGE_CURVE('',#178,#178,#196,.T.);
#148=EDGE_CURVE('',#179,#179,#197,.T.);
#149=EDGE_CURVE('',#180,#181,#33,.T.);
#150=EDGE_CURVE('',#180,#167,#34,.T.);
#151=EDGE_CURVE('',#181,#169,#35,.T.);
#152=EDGE_CURVE('',#182,#182,#198,.T.);
#153=EDGE_CURVE('',#183,#183,#199,.T.);
#154=EDGE_CURVE('',#184,#184,#200,.T.);
#155=EDGE_CURVE('',#185,#185,#201,.T.);
#156=EDGE_CURVE('',#180,#174,#36,.T.);
#157=EDGE_CURVE('',#181,#175,#37,.T.);
#158=VERTEX_POINT('',#438);
#159=VERTEX_POINT('',#440);
#160=VERTEX_POINT('',#442);
#161=VERTEX_POINT('',#444);
#162=VERTEX_POINT('',#446);
#163=VERTEX_POINT('',#447);
#164=VERTEX_POINT('',#449);
#165=VERTEX_POINT('',#451);
#166=VERTEX_POINT('',#455);
#167=VERTEX_POINT('',#456);
#168=VERTEX_POINT('',#458);
#169=VERTEX_POINT('',#460);
#170=VERTEX_POINT('',#464);
#171=VERTEX_POINT('',#466);
#172=VERTEX_POINT('',#468);
#173=VERTEX_POINT('',#470);
#174=VERTEX_POINT('',#475);
#175=VERTEX_POINT('',#477);
#176=VERTEX_POINT('',#481);
#177=VERTEX_POINT('',#483);
#178=VERTEX_POINT('',#485);
#179=VERTEX_POINT('',#487);
#180=VERTEX_POINT('',#489);
#181=VERTEX_POINT('',#490);
#182=VERTEX_POINT('',#495);
#183=VERTEX_POINT('',#497);
#184=VERTEX_POINT('',#499);
#185=VERTEX_POINT('',#501);
#186=CIRCLE('',#320,0.00135);
#187=CIRCLE('',#321,0.00135);
#188=CIRCLE('',#322,0.00135);
#189=CIRCLE('',#323,0.00135);
#190=CIRCLE('',#326,0.00135);
#191=CIRCLE('',#327,0.00135);
#192=CIRCLE('',#328,0.00135);
#193=CIRCLE('',#329,0.00135);
#194=CIRCLE('',#332,0.00135);
#195=CIRCLE('',#333,0.00135);
#196=CIRCLE('',#334,0.00135);
#197=CIRCLE('',#335,0.00135);
#198=CIRCLE('',#337,0.00135);
#199=CIRCLE('',#338,0.00135);
#200=CIRCLE('',#339,0.00135);
#201=CIRCLE('',#340,0.00135);
#202=EDGE_LOOP('',(#56));
#203=EDGE_LOOP('',(#57));
#204=EDGE_LOOP('',(#58));
#205=EDGE_LOOP('',(#59));
#206=EDGE_LOOP('',(#60,#61,#62,#63));
#207=EDGE_LOOP('',(#64,#65,#66,#67));
#208=EDGE_LOOP('',(#68));
#209=EDGE_LOOP('',(#69));
#210=EDGE_LOOP('',(#70));
#211=EDGE_LOOP('',(#71));
#212=EDGE_LOOP('',(#72,#73,#74,#75));
#213=EDGE_LOOP('',(#76,#77,#78,#79));
#214=EDGE_LOOP('',(#80));
#215=EDGE_LOOP('',(#81));
#216=EDGE_LOOP('',(#82));
#217=EDGE_LOOP('',(#83));
#218=EDGE_LOOP('',(#84,#85,#86,#87));
#219=EDGE_LOOP('',(#88));
#220=EDGE_LOOP('',(#89));
#221=EDGE_LOOP('',(#90));
#222=EDGE_LOOP('',(#91));
#223=EDGE_LOOP('',(#92,#93,#94,#95));
#224=EDGE_LOOP('',(#96));
#225=EDGE_LOOP('',(#97));
#226=EDGE_LOOP('',(#98));
#227=EDGE_LOOP('',(#99));
#228=EDGE_LOOP('',(#100));
#229=EDGE_LOOP('',(#101));
#230=EDGE_LOOP('',(#102));
#231=EDGE_LOOP('',(#103));
#232=EDGE_LOOP('',(#104));
#233=EDGE_LOOP('',(#105));
#234=EDGE_LOOP('',(#106));
#235=EDGE_LOOP('',(#107));
#236=EDGE_LOOP('',(#108));
#237=EDGE_LOOP('',(#109));
#238=EDGE_LOOP('',(#110));
#239=EDGE_LOOP('',(#111));
#240=EDGE_LOOP('',(#112,#113,#114,#115,#116,#117));
#241=EDGE_LOOP('',(#118,#119,#120,#121,#122,#123));
#242=FACE_BOUND('',#202,.T.);
#243=FACE_BOUND('',#203,.T.);
#244=FACE_BOUND('',#204,.T.);
#245=FACE_BOUND('',#205,.T.);
#246=FACE_BOUND('',#206,.T.);
#247=FACE_BOUND('',#207,.T.);
#248=FACE_BOUND('',#208,.T.);
#249=FACE_BOUND('',#209,.T.);
#250=FACE_BOUND('',#210,.T.);
#251=FACE_BOUND('',#211,.T.);
#252=FACE_BOUND('',#212,.T.);
#253=FACE_BOUND('',#213,.T.);
#254=FACE_BOUND('',#214,.T.);
#255=FACE_BOUND('',#215,.T.);
#256=FACE_BOUND('',#216,.T.);
#257=FACE_BOUND('',#217,.T.);
#258=FACE_BOUND('',#218,.T.);
#259=FACE_BOUND('',#219,.T.);
#260=FACE_BOUND('',#220,.T.);
#261=FACE_BOUND('',#221,.T.);
#262=FACE_BOUND('',#222,.T.);
#263=FACE_BOUND('',#223,.T.);
#264=FACE_BOUND('',#224,.T.);
#265=FACE_BOUND('',#225,.T.);
#266=FACE_BOUND('',#226,.T.);
#267=FACE_BOUND('',#227,.T.);
#268=FACE_BOUND('',#228,.T.);
#269=FACE_BOUND('',#229,.T.);
#270=FACE_BOUND('',#230,.T.);
#271=FACE_BOUND('',#231,.T.);
#272=FACE_BOUND('',#232,.T.);
#273=FACE_BOUND('',#233,.T.);
#274=FACE_BOUND('',#234,.T.);
#275=FACE_BOUND('',#235,.T.);
#276=FACE_BOUND('',#236,.T.);
#277=FACE_BOUND('',#237,.T.);
#278=FACE_BOUND('',#238,.T.);
#279=FACE_BOUND('',#239,.T.);
#280=FACE_BOUND('',#240,.T.);
#281=FACE_BOUND('',#241,.T.);
#282=PLANE('',#319);
#283=PLANE('',#324);
#284=PLANE('',#325);
#285=PLANE('',#330);
#286=PLANE('',#331);
#287=PLANE('',#336);
#288=PLANE('',#349);
#289=PLANE('',#350);
#290=ADVANCED_FACE('',(#242,#243,#244,#245,#246),#282,.T.);
#291=ADVANCED_FACE('',(#247),#283,.F.);
#292=ADVANCED_FACE('',(#248,#249,#250,#251,#252),#284,.F.);
#293=ADVANCED_FACE('',(#253),#285,.T.);
#294=ADVANCED_FACE('',(#254,#255,#256,#257,#258),#286,.T.);
#295=ADVANCED_FACE('',(#259,#260,#261,#262,#263),#287,.F.);
#296=ADVANCED_FACE('',(#264,#265),#12,.F.);
#297=ADVANCED_FACE('',(#266,#267),#13,.F.);
#298=ADVANCED_FACE('',(#268,#269),#14,.F.);
#299=ADVANCED_FACE('',(#270,#271),#15,.F.);
#300=ADVANCED_FACE('',(#272,#273),#16,.F.);
#301=ADVANCED_FACE('',(#274,#275),#17,.F.);
#302=ADVANCED_FACE('',(#276,#277),#18,.F.);
#303=ADVANCED_FACE('',(#278,#279),#19,.F.);
#304=ADVANCED_FACE('',(#280),#288,.F.);
#305=ADVANCED_FACE('',(#281),#289,.T.);
#306=CLOSED_SHELL('',(#290,#291,#292,#293,#294,#295,#296,#297,#298,#299,
#300,#301,#302,#303,#304,#305));
#307=STYLED_ITEM('',(#308),#315);
#308=PRESENTATION_STYLE_ASSIGNMENT((#309));
#309=SURFACE_STYLE_USAGE(.BOTH.,#310);
#310=SURFACE_SIDE_STYLE('',(#311));
#311=SURFACE_STYLE_FILL_AREA(#312);
#312=FILL_AREA_STYLE('',(#313));
#313=FILL_AREA_STYLE_COLOUR('',#314);
#314=COLOUR_RGB('',0.615686274509804,0.811764705882353,0.929411764705882);
#315=MANIFOLD_SOLID_BREP('Part 1',#306);
#316=SHAPE_DEFINITION_REPRESENTATION(#520,#317);
#317=SHAPE_REPRESENTATION('Part 1',(#318),#515);
#318=AXIS2_PLACEMENT_3D('',#435,#351,#352);
#319=AXIS2_PLACEMENT_3D('',#436,#353,#354);
#320=AXIS2_PLACEMENT_3D('',#437,#355,#356);
#321=AXIS2_PLACEMENT_3D('',#439,#357,#358);
#322=AXIS2_PLACEMENT_3D('',#441,#359,#360);
#323=AXIS2_PLACEMENT_3D('',#443,#361,#362);
#324=AXIS2_PLACEMENT_3D('',#453,#367,#368);
#325=AXIS2_PLACEMENT_3D('',#462,#373,#374);
#326=AXIS2_PLACEMENT_3D('',#463,#375,#376);
#327=AXIS2_PLACEMENT_3D('',#465,#377,#378);
#328=AXIS2_PLACEMENT_3D('',#467,#379,#380);
#329=AXIS2_PLACEMENT_3D('',#469,#381,#382);
#330=AXIS2_PLACEMENT_3D('',#473,#385,#386);
#331=AXIS2_PLACEMENT_3D('',#479,#390,#391);
#332=AXIS2_PLACEMENT_3D('',#480,#392,#393);
#333=AXIS2_PLACEMENT_3D('',#482,#394,#395);
#334=AXIS2_PLACEMENT_3D('',#484,#396,#397);
#335=AXIS2_PLACEMENT_3D('',#486,#398,#399);
#336=AXIS2_PLACEMENT_3D('',#493,#403,#404);
#337=AXIS2_PLACEMENT_3D('',#494,#405,#406);
#338=AXIS2_PLACEMENT_3D('',#496,#407,#408);
#339=AXIS2_PLACEMENT_3D('',#498,#409,#410);
#340=AXIS2_PLACEMENT_3D('',#500,#411,#412);
#341=AXIS2_PLACEMENT_3D('',#504,#415,#416);
#342=AXIS2_PLACEMENT_3D('',#505,#417,#418);
#343=AXIS2_PLACEMENT_3D('',#506,#419,#420);
#344=AXIS2_PLACEMENT_3D('',#507,#421,#422);
#345=AXIS2_PLACEMENT_3D('',#508,#423,#424);
#346=AXIS2_PLACEMENT_3D('',#509,#425,#426);
#347=AXIS2_PLACEMENT_3D('',#510,#427,#428);
#348=AXIS2_PLACEMENT_3D('',#511,#429,#430);
#349=AXIS2_PLACEMENT_3D('',#512,#431,#432);
#350=AXIS2_PLACEMENT_3D('',#513,#433,#434);
#351=DIRECTION('',(0.,0.,1.));
#352=DIRECTION('',(1.,0.,0.));
#353=DIRECTION('',(0.,1.,0.));
#354=DIRECTION('',(0.,0.,1.));
#355=DIRECTION('',(0.,1.,0.));
#356=DIRECTION('',(0.,0.,1.));
#357=DIRECTION('',(0.,1.,0.));
#358=DIRECTION('',(0.,0.,1.));
#359=DIRECTION('',(0.,1.,0.));
#360=DIRECTION('',(0.,0.,1.));
#361=DIRECTION('',(0.,1.,0.));
#362=DIRECTION('',(0.,0.,1.));
#363=DIRECTION('',(1.,0.,0.));
#364=DIRECTION('',(0.,0.,1.));
#365=DIRECTION('',(1.,0.,0.));
#366=DIRECTION('',(0.,0.,1.));
#367=DIRECTION('',(0.,1.,0.));
#368=DIRECTION('',(0.,0.,1.));
#369=DIRECTION('',(0.,0.,1.));
#370=DIRECTION('',(1.,0.,0.));
#371=DIRECTION('',(0.,0.,1.));
#372=DIRECTION('',(1.,0.,0.));
#373=DIRECTION('',(0.,0.,1.));
#374=DIRECTION('',(1.,0.,0.));
#375=DIRECTION('',(0.,0.,1.));
#376=DIRECTION('',(1.,0.,0.));
#377=DIRECTION('',(0.,0.,1.));
#378=DIRECTION('',(1.,0.,0.));
#379=DIRECTION('',(0.,0.,1.));
#380=DIRECTION('',(1.,0.,0.));
#381=DIRECTION('',(0.,0.,1.));
#382=DIRECTION('',(1.,0.,0.));
#383=DIRECTION('',(-9.91270557701033E-17,1.,0.));
#384=DIRECTION('',(0.,1.,0.));
#385=DIRECTION('',(0.,0.,1.));
#386=DIRECTION('',(1.,0.,0.));
#387=DIRECTION('',(9.91270557701033E-17,-1.,0.));
#388=DIRECTION('',(1.,0.,0.));
#389=DIRECTION('',(0.,-1.,0.));
#390=DIRECTION('',(0.,0.,1.));
#391=DIRECTION('',(1.,0.,0.));
#392=DIRECTION('',(0.,0.,1.));
#393=DIRECTION('',(1.,0.,0.));
#394=DIRECTION('',(0.,0.,1.));
#395=DIRECTION('',(1.,0.,0.));
#396=DIRECTION('',(0.,0.,1.));
#397=DIRECTION('',(1.,0.,0.));
#398=DIRECTION('',(0.,0.,1.));
#399=DIRECTION('',(1.,0.,0.));
#400=DIRECTION('',(1.,0.,0.));
#401=DIRECTION('',(9.91270557701033E-17,-1.,0.));
#402=DIRECTION('',(0.,-1.,0.));
#403=DIRECTION('',(0.,1.,0.));
#404=DIRECTION('',(0.,0.,1.));
#405=DIRECTION('',(0.,-1.,0.));
#406=DIRECTION('',(0.,0.,-1.));
#407=DIRECTION('',(0.,-1.,0.));
#408=DIRECTION('',(0.,0.,-1.));
#409=DIRECTION('',(0.,-1.,0.));
#410=DIRECTION('',(0.,0.,-1.));
#411=DIRECTION('',(0.,-1.,0.));
#412=DIRECTION('',(0.,0.,-1.));
#413=DIRECTION('',(0.,0.,1.));
#414=DIRECTION('',(0.,0.,1.));
#415=DIRECTION('',(0.,0.,1.));
#416=DIRECTION('',(1.,0.,0.));
#417=DIRECTION('',(0.,0.,1.));
#418=DIRECTION('',(1.,0.,0.));
#419=DIRECTION('',(0.,0.,1.));
#420=DIRECTION('',(1.,0.,0.));
#421=DIRECTION('',(0.,0.,1.));
#422=DIRECTION('',(1.,0.,0.));
#423=DIRECTION('',(0.,-1.,0.));
#424=DIRECTION('',(0.,0.,-1.));
#425=DIRECTION('',(0.,-1.,0.));
#426=DIRECTION('',(0.,0.,-1.));
#427=DIRECTION('',(0.,-1.,0.));
#428=DIRECTION('',(0.,0.,-1.));
#429=DIRECTION('',(0.,-1.,0.));
#430=DIRECTION('',(0.,0.,-1.));
#431=DIRECTION('',(-1.,0.,0.));
#432=DIRECTION('',(0.,0.,1.));
#433=DIRECTION('',(-1.,-9.91270557701033E-17,0.));
#434=DIRECTION('',(9.91270557701033E-17,-1.,0.));
#435=CARTESIAN_POINT('',(0.,0.,0.));
#436=CARTESIAN_POINT('',(0.0475,0.,0.007));
#437=CARTESIAN_POINT('',(0.015,0.,0.02));
#438=CARTESIAN_POINT('',(0.015,0.,0.02135));
#439=CARTESIAN_POINT('',(0.08,0.,0.045));
#440=CARTESIAN_POINT('',(0.08,0.,0.04635));
#441=CARTESIAN_POINT('',(0.08,0.,0.02));
#442=CARTESIAN_POINT('',(0.08,0.,0.02135));
#443=CARTESIAN_POINT('',(0.015,0.,0.045));
#444=CARTESIAN_POINT('',(0.015,0.,0.04635));
#445=CARTESIAN_POINT('',(0.0475,0.,0.));
#446=CARTESIAN_POINT('',(0.01,0.,0.));
#447=CARTESIAN_POINT('',(0.085,0.,0.));
#448=CARTESIAN_POINT('',(0.01,0.,-2.000000000002E-6));
#449=CARTESIAN_POINT('',(0.01,0.,0.05));
#450=CARTESIAN_POINT('',(0.0475,0.,0.05));
#451=CARTESIAN_POINT('',(0.085,0.,0.05));
#452=CARTESIAN_POINT('',(0.085,0.,-2.000000000002E-6));
#453=CARTESIAN_POINT('',(0.0475,-0.035,0.007));
#454=CARTESIAN_POINT('',(0.01,-0.035,-2.000000000002E-6));
#455=CARTESIAN_POINT('',(0.01,-0.035,0.));
#456=CARTESIAN_POINT('',(0.01,-0.035,0.007));
#457=CARTESIAN_POINT('',(0.0475,-0.035,0.));
#458=CARTESIAN_POINT('',(0.085,-0.035,0.));
#459=CARTESIAN_POINT('',(0.085,-0.035,-2.000000000002E-6));
#460=CARTESIAN_POINT('',(0.085,-0.035,0.007));
#461=CARTESIAN_POINT('',(0.0475,-0.035,0.007));
#462=CARTESIAN_POINT('',(0.0475,-0.0175,0.));
#463=CARTESIAN_POINT('',(0.015,-0.015,0.));
#464=CARTESIAN_POINT('',(0.01635,-0.015,0.));
#465=CARTESIAN_POINT('',(0.015,-0.03,0.));
#466=CARTESIAN_POINT('',(0.01635,-0.03,0.));
#467=CARTESIAN_POINT('',(0.08,-0.03,0.));
#468=CARTESIAN_POINT('',(0.08135,-0.03,0.));
#469=CARTESIAN_POINT('',(0.08,-0.015,0.));
#470=CARTESIAN_POINT('',(0.08135,-0.015,0.));
#471=CARTESIAN_POINT('',(0.01,-0.0175,0.));
#472=CARTESIAN_POINT('',(0.085,-0.0175,0.));
#473=CARTESIAN_POINT('',(0.0475,-0.0175,0.05));
#474=CARTESIAN_POINT('',(0.01,-0.0175,0.05));
#475=CARTESIAN_POINT('',(0.01,-0.01,0.05));
#476=CARTESIAN_POINT('',(0.0475,-0.01,0.05));
#477=CARTESIAN_POINT('',(0.085,-0.01,0.05));
#478=CARTESIAN_POINT('',(0.085,-0.0175,0.05));
#479=CARTESIAN_POINT('',(0.0475,-0.0175,0.007));
#480=CARTESIAN_POINT('',(0.08,-0.015,0.007));
#481=CARTESIAN_POINT('',(0.08135,-0.015,0.007));
#482=CARTESIAN_POINT('',(0.08,-0.03,0.007));
#483=CARTESIAN_POINT('',(0.08135,-0.03,0.007));
#484=CARTESIAN_POINT('',(0.015,-0.03,0.007));
#485=CARTESIAN_POINT('',(0.01635,-0.03,0.007));
#486=CARTESIAN_POINT('',(0.015,-0.015,0.007));
#487=CARTESIAN_POINT('',(0.01635,-0.015,0.007));
#488=CARTESIAN_POINT('',(0.0475,-0.01,0.007));
#489=CARTESIAN_POINT('',(0.01,-0.01,0.007));
#490=CARTESIAN_POINT('',(0.085,-0.01,0.007));
#491=CARTESIAN_POINT('',(0.01,-0.0175,0.007));
#492=CARTESIAN_POINT('',(0.085,-0.0175,0.007));
#493=CARTESIAN_POINT('',(0.0475,-0.01,0.05));
#494=CARTESIAN_POINT('',(0.015,-0.01,0.045));
#495=CARTESIAN_POINT('',(0.015,-0.01,0.04365));
#496=CARTESIAN_POINT('',(0.08,-0.01,0.02));
#497=CARTESIAN_POINT('',(0.08,-0.01,0.01865));
#498=CARTESIAN_POINT('',(0.08,-0.01,0.045));
#499=CARTESIAN_POINT('',(0.08,-0.01,0.04365));
#500=CARTESIAN_POINT('',(0.015,-0.01,0.02));
#501=CARTESIAN_POINT('',(0.015,-0.01,0.01865));
#502=CARTESIAN_POINT('',(0.01,-0.01,0.05));
#503=CARTESIAN_POINT('',(0.085,-0.01,0.05));
#504=CARTESIAN_POINT('',(0.015,-0.015,-2.00000000000027E-6));
#505=CARTESIAN_POINT('',(0.015,-0.03,-2.00000000000027E-6));
#506=CARTESIAN_POINT('',(0.08,-0.03,-2.00000000000027E-6));
#507=CARTESIAN_POINT('',(0.08,-0.015,-2.00000000000027E-6));
#508=CARTESIAN_POINT('',(0.015,2.00000000000027E-6,0.045));
#509=CARTESIAN_POINT('',(0.08,2.00000000000027E-6,0.02));
#510=CARTESIAN_POINT('',(0.08,2.00000000000027E-6,0.045));
#511=CARTESIAN_POINT('',(0.015,2.00000000000027E-6,0.02));
#512=CARTESIAN_POINT('',(0.085,-0.0175,-2.000000000002E-6));
#513=CARTESIAN_POINT('',(0.01,-0.0175,-2.000000000002E-6));
#514=MECHANICAL_DESIGN_GEOMETRIC_PRESENTATION_REPRESENTATION('',(#307),
#515);
#515=(
GEOMETRIC_REPRESENTATION_CONTEXT(3)
GLOBAL_UNCERTAINTY_ASSIGNED_CONTEXT((#516))
GLOBAL_UNIT_ASSIGNED_CONTEXT((#519,#518,#517))
REPRESENTATION_CONTEXT('Part 1','TOP_LEVEL_ASSEMBLY_PART')
);
#516=UNCERTAINTY_MEASURE_WITH_UNIT(LENGTH_MEASURE(1.E-8),#519,
'DISTANCE_ACCURACY_VALUE','Maximum Tolerance applied to model');
#517=(
NAMED_UNIT(*)
SI_UNIT($,.STERADIAN.)
SOLID_ANGLE_UNIT()
);
#518=(
NAMED_UNIT(*)
PLANE_ANGLE_UNIT()
SI_UNIT($,.RADIAN.)
);
#519=(
LENGTH_UNIT()
NAMED_UNIT(*)
SI_UNIT($,.METRE.)
);
#520=PRODUCT_DEFINITION_SHAPE('','',#521);
#521=PRODUCT_DEFINITION('','',#523,#522);
#522=PRODUCT_DEFINITION_CONTEXT('',#529,'design');
#523=PRODUCT_DEFINITION_FORMATION_WITH_SPECIFIED_SOURCE('','',#525,
 .NOT_KNOWN.);
#524=PRODUCT_RELATED_PRODUCT_CATEGORY('','',(#525));
#525=PRODUCT('Part 1','Part 1','Part 1',(#527));
#526=PRODUCT_CATEGORY('','');
#527=PRODUCT_CONTEXT('',#529,'mechanical');
#528=APPLICATION_PROTOCOL_DEFINITION('international standard',
'ap242_managed_model_based_3d_engineering',2020,#529);
#529=APPLICATION_CONTEXT('managed model based 3d engineering');
ENDSEC;
END-ISO-10303-21;
